# xmcd
#
# Track frame offsets:
# 150
# 21923
# 35325
# 50069
# 77404
# 96438
# 112879
# 123502
# 133462
# 146962
# 157616
# 171195
# 184876
# 200351
# 217608
# 232573
# 244639
# 260355
# 271634
# 290934
# 308329
#
# Disc length: 4340 seconds
#
#
# Revision: 0
# Processed by: cddbd v1.5.2PL0 Copyright (c) Steve Scherf et al.
# Submitted via: FreeRIP 2.96 
#
DISCID=1d10f215
DTITLE=Varios - El canto de los Andes
DYEAR=1900
DGENRE=Latin
TTITLE0=Ojos Azules
TTITLE1=El Humahuanqueño
TTITLE2=Rin Del Angelito
TTITLE3=El Condo Pasa
TTITLE4=Virgenes Del Sol
TTITLE5=Vasija De Barro
TTITLE6=Carnavalito Argentino
TTITLE7=Que La Totilla Se Vuelva
TTITLE8=Alturas
TTITLE9=Oracion Del Jilguero
TTITLE10=Camino Adelante
TTITLE11=Danza Del Sikuri
TTITLE12=Fiesta De San Benito
TTITLE13=Tu
TTITLE14=Cacion Para Una Flor
TTITLE15=Fiesta Para Sikuri
TTITLE16=Estudio Para Charango
TTITLE17=Hombres Y Pueblos
TTITLE18=Candombe Para Jose
TTITLE19=Sambalando
TTITLE20=Cantata Santa Maria De Iquique
EXTD=
EXTT0=
EXTT1=
EXTT2=
EXTT3=
EXTT4=
EXTT5=
EXTT6=
EXTT7=
EXTT8=
EXTT9=
EXTT10=
EXTT11=
EXTT12=
EXTT13=
EXTT14=
EXTT15=
EXTT16=
EXTT17=
EXTT18=
EXTT19=
EXTT20=
PLAYORDER=
